<?xml version="1.0" encoding="UTF-8" standalone="no"?>
<!DOCTYPE svg PUBLIC "-//W3C//DTD SVG 1.1//EN" "http://www.w3.org/Graphics/SVG/1.1/DTD/svg11.dtd">
<!-- Generated by Microsoft Visio, SVG Export Service.svg Page-1 -->
<svg xmlns="http://www.w3.org/2000/svg" xmlns:xlink="http://www.w3.org/1999/xlink" xmlns:ev="http://www.w3.org/2001/xml-events"
		xmlns:v="http://schemas.microsoft.com/visio/2003/SVGExtensions/" width="0.790735in" height="0.633255in"
		viewBox="0 0 56.9329 45.5943" xml:space="preserve" color-interpolation-filters="sRGB" class="st3">
	<v:documentProperties v:langID="1031" v:metric="true" v:viewMarkup="false">
		<v:userDefs>
			<v:ud v:nameU="msvConvertTheme"/>
		</v:userDefs>
	</v:documentProperties>

	<style type="text/css">
	<![CDATA[
		.st1 {fill:#e6e6e6}
		.st2 {stroke:#000000;stroke-linecap:round;stroke-linejoin:round;stroke-width:0.24}
		.st3 {fill:none;fill-rule:evenodd;font-size:12px;overflow:visible;stroke-linecap:square;stroke-miterlimit:3}
	]]>
	</style>

	<g v:mID="0" v:index="1" v:groupContext="foregroundPage">
		<title>Page-1</title>
		<v:pageProperties v:drawingScale="0.0393701" v:pageScale="0.0393701" v:drawingUnits="24" v:shadowOffsetX="8.50394"
				v:shadowOffsetY="-8.50394"/>
		<g id="shape5-1" v:mID="5" v:groupContext="shape" transform="translate(0.12,-0.12)">
			<title>Daten- speicher</title>
			<v:custProps>
				<v:cp v:nameU="Cost" v:lbl="Kosten" v:prompt="Geben Sie die Kosten für diesen Prozeß ein." v:type="7" v:format="@"
						v:langID="1031"/>
				<v:cp v:nameU="Duration" v:lbl="Dauer" v:prompt="Geben Sie die Dauer dieser Prozeß-Stufe ein." v:type="2"
						v:langID="1031"/>
				<v:cp v:nameU="Resources" v:lbl="Ressourcen"
						v:prompt="Geben Sie die Anzahl der Personen ein, die an diesem Vorgang beteiligt sind." v:langID="1031"/>
			</v:custProps>
			<path d="M0 5.91 L0 39.93 A28.3465 5.66929 -180 1 0 56.69 39.93 L56.69 5.91 A28.3465 5.66929 -180 1 0 -0 5.91 Z"
					class="st1"/>
			<path d="M0 5.91 L0 39.93 A28.3465 5.66929 -180 1 0 56.69 39.93 L56.69 5.91 A28.3465 5.66929 -180 1 0 -0 5.91"
					class="st2"/>
			<path d="M0 5.91 A28.3465 5.66929 -180 0 0 56.69 5.91" class="st2"/>
			<path d="M0 8.74 A28.3465 5.66929 -180 1 0 56.69 8.74" class="st2"/>
		</g>
	</g>
</svg>
