<?xml version="1.0" encoding="iso-8859-1"?>
<!-- Generator: Adobe Illustrator 19.0.0, SVG Export Plug-In . SVG Version: 6.00 Build 0)  -->
<svg version="1.1" id="Layer_1" xmlns="http://www.w3.org/2000/svg" xmlns:xlink="http://www.w3.org/1999/xlink" x="0px" y="0px"
	 viewBox="0 0 512 512" style="enable-background:new 0 0 512 512;" xml:space="preserve">
<path style="fill:#00D7DF;" d="M256,512c-54.292,0-98.462-44.17-98.462-98.462V98.462C157.538,44.17,201.708,0,256,0
	s98.462,44.17,98.462,98.462v315.077C354.462,467.83,310.292,512,256,512z M256,39.385c-32.576,0-59.077,26.502-59.077,59.077
	v315.077c0,32.576,26.501,59.077,59.077,59.077s59.077-26.501,59.077-59.077V98.462C315.077,65.887,288.576,39.385,256,39.385z"/>
<path style="fill:#00A1A7;" d="M315.077,341.333v72.205c0,32.576-26.501,59.077-59.077,59.077s-59.077-26.501-59.077-59.077V98.462
	c0-32.575,26.501-59.077,59.077-59.077c0.021,0,0.041,0.001,0.063,0.001V0.001C256.041,0.001,256.021,0,256,0
	c-54.292,0-98.462,44.17-98.462,98.462v315.077C157.538,467.83,201.708,512,256,512s98.462-44.17,98.462-98.462v-98.462
	L315.077,341.333z"/>
<path style="fill:#00D7DF;" d="M295.385,374.154c-32.576,0-59.077-26.501-59.077-59.077V157.538h39.385v157.538
	c0,10.858,8.834,19.692,19.692,19.692c10.858,0,19.692-8.834,19.692-19.692V157.538h39.385v157.538
	C354.462,347.653,327.961,374.154,295.385,374.154z"/>
<g>
</g>
<g>
</g>
<g>
</g>
<g>
</g>
<g>
</g>
<g>
</g>
<g>
</g>
<g>
</g>
<g>
</g>
<g>
</g>
<g>
</g>
<g>
</g>
<g>
</g>
<g>
</g>
<g>
</g>
</svg>
