<?xml version="1.0" encoding="iso-8859-1"?>
<!-- Generator: Adobe Illustrator 19.0.0, SVG Export Plug-In . SVG Version: 6.00 Build 0)  -->
<svg version="1.1" id="Layer_1" xmlns="http://www.w3.org/2000/svg" xmlns:xlink="http://www.w3.org/1999/xlink" x="0px" y="0px"
	 viewBox="0 0 512 512" style="enable-background:new 0 0 512 512;" xml:space="preserve">
<path style="fill:#9BC9FF;" d="M488.727,69.818H256H23.273C10.42,69.818,0,80.238,0,93.091v325.818
	c0,12.853,10.42,23.273,23.273,23.273H256h232.727c12.853,0,23.273-10.42,23.273-23.273V93.091
	C512,80.238,501.58,69.818,488.727,69.818z"/>
<path style="fill:#57A4FF;" d="M23.273,69.818C10.42,69.818,0,80.238,0,93.091v325.818c0,12.853,10.42,23.273,23.273,23.273H256
	V69.818H23.273z"/>
<g>
	<circle style="fill:#BDFDFF;" cx="173.692" cy="211.673" r="56.809"/>
	<path style="fill:#BDFDFF;" d="M173.7,268.479c-48.803,0-88.367,39.561-88.367,88.37h176.733
		C262.066,308.039,222.503,268.479,173.7,268.479z"/>
	<path style="fill:#BDFDFF;" d="M395.636,279.273H323.6c-12.853,0-23.273-10.42-23.273-23.273c0-12.853,10.42-23.273,23.273-23.273
		h72.037c12.853,0,23.273,10.42,23.273,23.273C418.909,268.853,408.489,279.273,395.636,279.273z"/>
</g>
<g>
</g>
<g>
</g>
<g>
</g>
<g>
</g>
<g>
</g>
<g>
</g>
<g>
</g>
<g>
</g>
<g>
</g>
<g>
</g>
<g>
</g>
<g>
</g>
<g>
</g>
<g>
</g>
<g>
</g>
</svg>
