<?xml version="1.0" encoding="UTF-8" standalone="no"?>
<!DOCTYPE svg PUBLIC "-//W3C//DTD SVG 1.1//EN" "http://www.w3.org/Graphics/SVG/1.1/DTD/svg11.dtd">
<!-- Generated by Microsoft Visio, SVG Export Data_Graphic.svg Page-1 -->
<svg xmlns="http://www.w3.org/2000/svg" xmlns:xlink="http://www.w3.org/1999/xlink" xmlns:ev="http://www.w3.org/2001/xml-events"
		xmlns:v="http://schemas.microsoft.com/visio/2003/SVGExtensions/" width="1.34333in" height="1.01in"
		viewBox="0 0 96.72 72.72" xml:space="preserve" color-interpolation-filters="sRGB" class="st8">
	<v:documentProperties v:langID="1031" v:metric="true" v:viewMarkup="false">
		<v:userDefs>
			<v:ud v:nameU="msvConvertTheme"/>
		</v:userDefs>
	</v:documentProperties>

	<style type="text/css">
	<![CDATA[
		.st1 {fill:#f0f0f0;stroke:#c0c0c0;stroke-linecap:round;stroke-linejoin:round;stroke-width:0.72}
		.st2 {fill:#ff8066}
		.st3 {stroke:#000000;stroke-linecap:round;stroke-linejoin:round;stroke-width:0.72}
		.st4 {fill:url(#grad0-12);stroke:#000000;stroke-linecap:round;stroke-linejoin:round;stroke-width:0.01}
		.st5 {fill:#000000}
		.st6 {fill:url(#grad0-19)}
		.st7 {stroke:#000000;stroke-linecap:round;stroke-linejoin:round;stroke-width:0.01}
		.st8 {fill:none;fill-rule:evenodd;font-size:12px;overflow:visible;stroke-linecap:square;stroke-miterlimit:3}
	]]>
	</style>

	<defs id="Patterns_And_Gradients">
		<linearGradient id="grad0-12" x1="0" y1="0" x2="1" y2="0" gradientTransform="rotate(180 0.5 0.5)">
			<stop offset="0" stop-color="#ff8066" stop-opacity="1"/>
			<stop offset="1" stop-color="#ff0000" stop-opacity="1"/>
		</linearGradient>
		<linearGradient id="grad0-19" x1="0" y1="0" x2="1" y2="0" gradientTransform="rotate(180 0.5 0.5)">
			<stop offset="0.01" stop-color="#ff0000" stop-opacity="1"/>
			<stop offset="0.5" stop-color="#ff8066" stop-opacity="1"/>
			<stop offset="1" stop-color="#ff0000" stop-opacity="1"/>
		</linearGradient>
	</defs>
	<g v:mID="0" v:index="1" v:groupContext="foregroundPage">
		<title>Page-1</title>
		<v:pageProperties v:drawingScale="0.0393701" v:pageScale="0.0393701" v:drawingUnits="24" v:shadowOffsetX="8.50394"
				v:shadowOffsetY="-8.50394"/>
		<v:layer v:name="Data Graphic" v:index="0"/>
		<g id="group5-1" transform="translate(0.36,-0.36)" v:mID="5" v:groupContext="group">
			<v:userDefs>
				<v:ud v:nameU="visDGDefaultPos" v:val="VT7(PNT(4,4)):40"/>
			</v:userDefs>
			<title>Sheet.5</title>
			<g id="shape5-2" v:mID="5" v:groupContext="groupContent">
				<rect x="0" y="0.72" width="96" height="72" class="st1"/>
			</g>
			<g id="group6-4" transform="translate(78.9921,-54.9921)" v:mID="6" v:groupContext="group" v:layerMember="0">
				<v:custProps>
					<v:cp v:nameU="msvCalloutField" v:lbl="" v:prompt="" v:type="0" v:format="" v:sortKey="" v:invis="true"
							v:ask="false" v:langID="1033" v:cal="0"/>
				</v:custProps>
				<v:userDefs>
					<v:ud v:nameU="msvCalloutType" v:prompt="" v:val="VT4(Icon Set)"/>
					<v:ud v:nameU="visDGDefaultPos" v:prompt="" v:val="VT0(0):5"/>
					<v:ud v:nameU="msvCalloutIconNumber" v:prompt="" v:val="VT0(0):26"/>
					<v:ud v:nameU="msvCalloutIconCount" v:prompt="" v:val="VT0(5):26"/>
					<v:ud v:nameU="visDGCalloutItem" v:prompt="" v:val="VT0(5):26"/>
					<v:ud v:nameU="visDGStackHeight" v:prompt="" v:val="VT0(0):26"/>
					<v:ud v:nameU="msvThemeColors" v:prompt=""/>
					<v:ud v:nameU="msvThemeEffects" v:prompt=""/>
					<v:ud v:nameU="visVersion" v:prompt="" v:val="VT0(14):26"/>
					<v:ud v:nameU="visDGField10" v:val="VT4({ToUpdate})"/>
					<v:ud v:nameU="visDGField11" v:val="VT4(TRUE)"/>
					<v:ud v:nameU="visDGItemID" v:val="VT0(1):26"/>
					<v:ud v:nameU="visDGUseMaster" v:val="VT0(254):26"/>
					<v:ud v:nameU="visDGCalloutIconNumber" v:val="VT0(-1):26"/>
				</v:userDefs>
				<title>Flags</title>
				<g id="shape6-5" v:mID="6" v:groupContext="groupContent" v:layerMember="0">
					<path d="M9.95 59.42 L9.84 58.36 C8.11 55.98 4.36 56.94 4.36 56.94 L6.74 63.55 C6.74 63.55 7.72 63.03 8.85 63.03
								 L9 63.68 C11.77 64.72 13.47 63.6 14.93 61.75 C12.53 61.77 10.84 60.39 9.95 59.42 Z" class="st2"/>
					<path d="M9.95 59.42 L9.84 58.36 C8.11 55.98 4.36 56.94 4.36 56.94 L6.74 63.55 C6.74 63.55 7.72 63.03 8.85 63.03
								 L9 63.68 C11.77 64.72 13.47 63.6 14.93 61.75 C12.53 61.77 10.84 60.39 9.95 59.42" class="st3"/>
					<path d="M3.14 57.15 L8.34 71.65" class="st3"/>
				</g>
				<g id="shape7-9" v:mID="7" v:groupContext="shape" v:layerMember="0">
					<title>Sheet.7</title>
					<v:userDefs>
						<v:ud v:nameU="visCalloutIconNumber" v:prompt="" v:val="VT0(0):26"/>
					</v:userDefs>
					<path d="M9.2 58.49 C9.2 58.49 11.23 61.78 14.93 61.75 C13.44 63.64 11.71 64.77 9.01 63.65 L9.2 58.49 Z"
							class="st4"/>
				</g>
				<g id="shape8-13" v:mID="8" v:groupContext="shape" v:layerMember="0">
					<title>Sheet.8</title>
					<path d="M8.85 63.03 L9 63.68 C9.59 63.78 9.82 63.77 10.35 63.41 C9.87 63.13 9.34 63.03 8.85 63.03 Z"
							class="st5"/>
				</g>
				<g id="shape9-16" v:mID="9" v:groupContext="shape" v:layerMember="0">
					<title>Sheet.9</title>
					<v:userDefs>
						<v:ud v:nameU="visCalloutIconNumber" v:prompt="" v:val="VT0(0):26"/>
					</v:userDefs>
					<path d="M6.74 63.55 L4.36 56.94 C4.35 56.94 8.1 55.98 9.84 58.36 L10.35 63.42 C8.75 62.47 6.72 63.55 6.74 63.55
								 Z" class="st6"/>
					<path d="M6.74 63.55 L4.36 56.94 C4.35 56.94 8.1 55.98 9.84 58.36M10.35 63.42 C8.75 62.47 6.72 63.55 6.74 63.55"
							class="st7"/>
				</g>
			</g>
		</g>
	</g>
</svg>
