<?xml version="1.0" encoding="UTF-8" standalone="no"?>
<!DOCTYPE svg PUBLIC "-//W3C//DTD SVG 1.1//EN" "http://www.w3.org/Graphics/SVG/1.1/DTD/svg11.dtd">
<!-- Generated by Microsoft Visio, SVG Export FieldSet.svg Page-1 -->
<svg xmlns="http://www.w3.org/2000/svg" xmlns:xlink="http://www.w3.org/1999/xlink" xmlns:ev="http://www.w3.org/2001/xml-events"
		xmlns:v="http://schemas.microsoft.com/visio/2003/SVGExtensions/" width="1.7098in" height="0.498889in"
		viewBox="0 0 123.106 35.92" xml:space="preserve" color-interpolation-filters="sRGB" class="st3">
	<v:documentProperties v:langID="1031" v:metric="true" v:viewMarkup="false">
		<v:userDefs>
			<v:ud v:nameU="msvConvertTheme"/>
		</v:userDefs>
	</v:documentProperties>

	<style type="text/css">
	<![CDATA[
		.st1 {fill:#68fb46}
		.st2 {fill:none;stroke:#000000;stroke-linecap:round;stroke-linejoin:round;stroke-width:0.72}
		.st3 {fill:none;fill-rule:evenodd;font-size:12px;overflow:visible;stroke-linecap:square;stroke-miterlimit:3}
	]]>
	</style>

	<g v:mID="0" v:index="1" v:groupContext="foregroundPage">
		<title>Page-1</title>
		<v:pageProperties v:drawingScale="0.0393701" v:pageScale="0.0393701" v:drawingUnits="24" v:shadowOffsetX="8.50394"
				v:shadowOffsetY="-8.50394"/>
		<g id="group5-1" transform="translate(0.36,-0.36)" v:mID="5" v:groupContext="group">
			<v:userDefs>
				<v:ud v:nameU="citPBB" v:prompt="" v:val="VT0(0):26"/>
			</v:userDefs>
			<title>TextField</title>
			<g id="shape6-2" v:mID="6" v:groupContext="shape" transform="translate(0,36.64) scale(1,-1)">
				<title>Sheet.6</title>
				<path d="M116.71 18.32 L5.67 18.32 L0 18.32 L0 23.31 L0 30.93 A5.67258 4.98898 -180 0 0 5.67 35.92 L116.71 35.92
							 A5.67258 4.98898 -180 0 0 122.39 30.93 L122.39 23.31 L122.39 18.32 L116.71 18.32 Z" class="st1"/>
			</g>
			<g id="shape7-5" v:mID="7" v:groupContext="shape">
				<title>Sheet.7</title>
				<path d="M116.71 18.32 L5.67 18.32 L0 18.32 L0 23.31 L0 30.93 A5.67258 4.98898 -180 0 0 5.67 35.92 L116.71 35.92
							 A5.67258 4.98898 -180 0 0 122.39 30.93 L122.39 23.31 L122.39 18.32 L116.71 18.32 Z" class="st1"/>
			</g>
			<g id="shape5-8" v:mID="5" v:groupContext="groupContent">
				<path d="M0.07 18.31 L0 30.93 A5.66929 4.98701 -180 0 0 5.67 35.92 L116.65 35.92 A5.66929 4.98701 -180 0 0 122.31
							 30.93 L122.31 18.33 L122.39 5.71 A5.66929 4.98701 -180 0 0 116.72 0.72 L5.74 0.72 A5.66929 4.98701 -180
							 0 0 0.07 5.71 L0.07 18.31 Z" class="st2"/>
			</g>
		</g>
	</g>
</svg>
