<?xml version="1.0" encoding="UTF-8" standalone="no"?>
<!DOCTYPE svg PUBLIC "-//W3C//DTD SVG 1.1//EN" "http://www.w3.org/Graphics/SVG/1.1/DTD/svg11.dtd">
<!-- Generated by Microsoft Visio, SVG Export Flags.svg Page-1 -->
<svg xmlns="http://www.w3.org/2000/svg" xmlns:xlink="http://www.w3.org/1999/xlink" xmlns:ev="http://www.w3.org/2001/xml-events"
		xmlns:v="http://schemas.microsoft.com/visio/2003/SVGExtensions/" width="0.23622in" height="0.425109in"
		viewBox="0 0 17.0079 30.6079" xml:space="preserve" color-interpolation-filters="sRGB" class="st7">
	<v:documentProperties v:langID="1031" v:metric="true" v:viewMarkup="false">
		<v:userDefs>
			<v:ud v:nameU="msvConvertTheme"/>
		</v:userDefs>
	</v:documentProperties>

	<style type="text/css">
	<![CDATA[
		.st1 {fill:#ff8066}
		.st2 {stroke:#000000;stroke-linecap:round;stroke-linejoin:round;stroke-width:0.72}
		.st3 {fill:url(#grad0-9);stroke:#000000;stroke-linecap:round;stroke-linejoin:round;stroke-width:0.01}
		.st4 {fill:#000000}
		.st5 {fill:url(#grad0-16)}
		.st6 {stroke:#000000;stroke-linecap:round;stroke-linejoin:round;stroke-width:0.01}
		.st7 {fill:none;fill-rule:evenodd;font-size:12px;overflow:visible;stroke-linecap:square;stroke-miterlimit:3}
	]]>
	</style>

	<defs id="Patterns_And_Gradients">
		<linearGradient id="grad0-9" x1="0" y1="0" x2="1" y2="0" gradientTransform="rotate(180 0.5 0.5)">
			<stop offset="0" stop-color="#ff8066" stop-opacity="1"/>
			<stop offset="1" stop-color="#ff0000" stop-opacity="1"/>
		</linearGradient>
		<linearGradient id="grad0-16" x1="0" y1="0" x2="1" y2="0" gradientTransform="rotate(180 0.5 0.5)">
			<stop offset="0.01" stop-color="#ff0000" stop-opacity="1"/>
			<stop offset="0.5" stop-color="#ff8066" stop-opacity="1"/>
			<stop offset="1" stop-color="#ff0000" stop-opacity="1"/>
		</linearGradient>
	</defs>
	<g v:mID="0" v:index="1" v:groupContext="foregroundPage">
		<title>Page-1</title>
		<v:pageProperties v:drawingScale="0.0393701" v:pageScale="0.0393701" v:drawingUnits="24" v:shadowOffsetX="8.50394"
				v:shadowOffsetY="-8.50394"/>
		<v:layer v:name="Data Graphic" v:index="0"/>
		<g id="group5-1" transform="translate(0,-13.6)" v:mID="5" v:groupContext="group" v:layerMember="0">
			<v:custProps>
				<v:cp v:nameU="msvCalloutField" v:lbl="" v:prompt="" v:type="0" v:format="" v:sortKey="" v:invis="true"
						v:ask="false" v:langID="1033" v:cal="0"/>
			</v:custProps>
			<v:userDefs>
				<v:ud v:nameU="msvCalloutType" v:prompt="" v:val="VT4(Icon Set)"/>
				<v:ud v:nameU="visDGDefaultPos" v:prompt="" v:val="VT0(0):26"/>
				<v:ud v:nameU="msvCalloutIconNumber" v:prompt="" v:val="VT0(0):26"/>
				<v:ud v:nameU="msvCalloutIconCount" v:prompt="" v:val="VT0(5):26"/>
				<v:ud v:nameU="visDGCalloutItem" v:prompt="" v:val="VT0(5):26"/>
				<v:ud v:nameU="visDGStackHeight" v:prompt="" v:val="VT0(0):26"/>
				<v:ud v:nameU="msvThemeColors" v:prompt=""/>
				<v:ud v:nameU="msvThemeEffects" v:prompt=""/>
				<v:ud v:nameU="visVersion" v:prompt="" v:val="VT0(14):26"/>
			</v:userDefs>
			<title>Sheet.5</title>
			<g id="shape5-2" v:mID="5" v:groupContext="groupContent" v:layerMember="0">
				<path d="M9.95 17.31 L9.84 16.25 C8.11 13.87 4.36 14.82 4.36 14.82 L6.74 21.44 C6.74 21.44 7.72 20.92 8.85 20.92
							 L9 21.57 C11.77 22.6 13.47 21.49 14.93 19.64 C12.53 19.66 10.84 18.28 9.95 17.31 Z" class="st1"/>
				<path d="M9.95 17.31 L9.84 16.25 C8.11 13.87 4.36 14.82 4.36 14.82 L6.74 21.44 C6.74 21.44 7.72 20.92 8.85 20.92
							 L9 21.57 C11.77 22.6 13.47 21.49 14.93 19.64 C12.53 19.66 10.84 18.28 9.95 17.31" class="st2"/>
				<path d="M3.14 15.03 L8.34 29.54" class="st2"/>
			</g>
			<g id="shape7-6" v:mID="7" v:groupContext="shape" v:layerMember="0">
				<title>Sheet.7</title>
				<v:userDefs>
					<v:ud v:nameU="visCalloutIconNumber" v:prompt="" v:val="VT0(0):26"/>
				</v:userDefs>
				<path d="M9.2 16.37 C9.2 16.37 11.23 19.67 14.93 19.64 C13.44 21.52 11.71 22.66 9.01 21.54 L9.2 16.37 Z"
						class="st3"/>
			</g>
			<g id="shape8-10" v:mID="8" v:groupContext="shape" v:layerMember="0">
				<title>Sheet.8</title>
				<path d="M8.85 20.92 L9 21.57 C9.59 21.67 9.82 21.66 10.35 21.3 C9.87 21.01 9.34 20.92 8.85 20.92 Z" class="st4"/>
			</g>
			<g id="shape6-13" v:mID="6" v:groupContext="shape" v:layerMember="0">
				<title>Sheet.6</title>
				<v:userDefs>
					<v:ud v:nameU="visCalloutIconNumber" v:prompt="" v:val="VT0(0):26"/>
				</v:userDefs>
				<path d="M6.74 21.44 L4.36 14.82 C4.35 14.82 8.1 13.87 9.84 16.25 L10.35 21.3 C8.75 20.36 6.72 21.44 6.74 21.44 Z"
						class="st5"/>
				<path d="M6.74 21.44 L4.36 14.82 C4.35 14.82 8.1 13.87 9.84 16.25M10.35 21.3 C8.75 20.36 6.72 21.44 6.74 21.44"
						class="st6"/>
			</g>
		</g>
	</g>
</svg>
