<?xml version="1.0" encoding="UTF-8" standalone="no"?>
<!DOCTYPE svg PUBLIC "-//W3C//DTD SVG 1.1//EN" "http://www.w3.org/Graphics/SVG/1.1/DTD/svg11.dtd">
<!-- Generated by Microsoft Visio, SVG Export Breakpoint.svg Page-1 -->
<svg xmlns="http://www.w3.org/2000/svg" xmlns:xlink="http://www.w3.org/1999/xlink" xmlns:ev="http://www.w3.org/2001/xml-events"
		xmlns:v="http://schemas.microsoft.com/visio/2003/SVGExtensions/" width="0.984252in" height="1.05624in"
		viewBox="0 0 70.8661 76.049" xml:space="preserve" color-interpolation-filters="sRGB" class="st6">
	<v:documentProperties v:langID="1031" v:metric="true" v:viewMarkup="false">
		<v:userDefs>
			<v:ud v:nameU="msvConvertTheme"/>
		</v:userDefs>
	</v:documentProperties>

	<style type="text/css">
	<![CDATA[
		.st1 {fill:#ff0000;stroke:none;stroke-linecap:round;stroke-linejoin:round;stroke-width:0.72}
		.st2 {fill:#ffffff}
		.st3 {stroke:none;stroke-linecap:round;stroke-linejoin:round;stroke-width:0.72}
		.st4 {fill:none;stroke:#ffffff;stroke-linecap:round;stroke-linejoin:round;stroke-width:0.24}
		.st5 {fill:#ffffff;stroke:none;stroke-linecap:round;stroke-linejoin:round;stroke-width:0.72;visibility:hidden}
		.st6 {fill:none;fill-rule:evenodd;font-size:12px;overflow:visible;stroke-linecap:square;stroke-miterlimit:3}
	]]>
	</style>

	<g v:mID="0" v:index="1" v:groupContext="foregroundPage">
		<title>Page-1</title>
		<v:pageProperties v:drawingScale="0.0393701" v:pageScale="0.0393701" v:drawingUnits="24" v:shadowOffsetX="8.50394"
				v:shadowOffsetY="-8.50394"/>
		<g id="group5-1" transform="translate(7.08662,-18.9961)" v:mID="5" v:groupContext="group">
			<v:userDefs>
				<v:ud v:nameU="visVersion" v:val="VT0(11):26"/>
			</v:userDefs>
			<title>Stop</title>
			<g id="shape6-2" v:mID="6" v:groupContext="shape">
				<title>Sheet.6</title>
				<path d="M16.6 76.05 L40.09 76.05 L56.69 59.44 L56.69 35.96 L40.09 19.36 L16.6 19.36 L0 35.96 L0 59.44 L16.6 76.05
							 Z" class="st1"/>
			</g>
			<g id="shape7-4" v:mID="7" v:groupContext="shape" transform="translate(3.47244,-19.1339)">
				<title>Sheet.7</title>
				<path d="M33.17 70.52 A1.84252 1.84252 0 0 1 29.48 70.53 L29.48 63.15 A1.84252 1.84252 0 0 1 33.17 63.15 L33.17 70.52
							 ZM36.85 72.36 L36.85 61.31 A3.68505 3.68505 -180 0 0 33.17 57.62 L33.17 57.62 L29.48 57.62 L29.48 57.62
							 A3.68504 3.68504 -180 0 0 25.8 61.31 L25.8 72.36 A3.68503 3.68503 -180 0 0 29.48 76.05 L29.48 76.05
							 L29.48 76.05 L33.17 76.05 L33.17 76.05 A3.68504 3.68504 -180 0 0 36.85 72.36 ZM20.27 76.05 L20.27 61.31
							 L23.95 61.31 L23.95 57.62 L12.9 57.62 L12.9 61.31 L16.58 61.31 L16.58 76.05 L20.27 76.05 ZM5.53 64.99
							 A1.84252 1.84252 0 0 1 5.53 61.31 L11.06 61.31 L11.06 57.62 L3.69 57.62 A3.68504 3.68504 -180 0 0 0
							 61.31 L0 64.99 A3.68504 3.68504 -180 0 0 3.69 68.68 L3.69 68.68 L5.53 68.68 A1.84252 1.84252 0 0 1 5.53
							 72.36 L5.53 72.36 L0 72.36 L0 76.05 L7.37 76.05 L7.37 76.05 A3.68503 3.68503 -180 0 0 11.06 72.36 L11.06
							 68.68 A3.68504 3.68504 -180 0 0 7.37 64.99 L7.37 64.99 L5.53 64.99 L5.53 64.99 ZM42.38 63.15 L42.38
							 64.99 L44.22 64.99 A1.84186 1.84186 -180 0 0 46.06 63.15 A1.84252 1.84252 -180 0 0 44.22 61.31 A1.84252
							 1.84252 -180 0 0 42.38 63.15 ZM46.06 68.68 L46.06 68.68 A3.68504 3.68504 -180 0 0 49.75 64.99 L49.75
							 64.99 L49.75 61.31 A3.68505 3.68505 -180 0 0 46.06 57.62 L46.06 57.62 L42.38 57.62 L42.38 57.62 A3.68504
							 3.68504 -180 0 0 38.69 61.31 L38.69 76.05 L42.38 76.05 L42.38 68.68 L46.06 68.68 L46.06 68.68 Z"
						class="st2"/>
				<path d="M33.17 70.52 A1.84252 1.84252 0 0 1 29.48 70.53 L29.48 63.15 A1.84252 1.84252 0 0 1 33.17 63.15 L33.17 70.52"
						class="st3"/>
				<path d="M36.85 72.36 L36.85 61.31 A3.68505 3.68505 -180 0 0 33.17 57.62 L33.17 57.62 L29.48 57.62 L29.48 57.62 A3.68504
							 3.68504 -180 0 0 25.8 61.31 L25.8 72.36 A3.68503 3.68503 -180 0 0 29.48 76.05 L29.48 76.05 L29.48 76.05
							 L33.17 76.05 L33.17 76.05 A3.68504 3.68504 -180 0 0 36.85 72.36" class="st3"/>
				<path d="M20.27 76.05 L20.27 61.31 L23.95 61.31 L23.95 57.62 L12.9 57.62 L12.9 61.31 L16.58 61.31 L16.58 76.05 L20.27
							 76.05" class="st3"/>
				<path d="M7.37 76.05 L7.37 76.05" class="st3"/>
				<path d="M3.69 57.62 L3.69 57.62" class="st3"/>
				<path d="M5.53 64.99 A1.84252 1.84252 0 0 1 5.53 61.31 L11.06 61.31 L11.06 57.62 L3.69 57.62 A3.68504 3.68504 -180
							 0 0 0 61.31 L0 64.99 A3.68504 3.68504 -180 0 0 3.69 68.68 L3.69 68.68 L5.53 68.68 A1.84252 1.84252 0
							 0 1 5.53 72.36 L5.53 72.36 L0 72.36 L0 76.05 L7.37 76.05 L7.37 76.05 A3.68503 3.68503 -180 0 0 11.06
							 72.36 L11.06 68.68 A3.68504 3.68504 -180 0 0 7.37 64.99 L7.37 64.99 L5.53 64.99 L5.53 64.99"
						class="st3"/>
				<path d="M42.38 63.15 L42.38 64.99 L44.22 64.99 A1.84186 1.84186 -180 0 0 46.06 63.15 A1.84252 1.84252 -180 0 0 44.22
							 61.31 A1.84252 1.84252 -180 0 0 42.38 63.15" class="st3"/>
				<path d="M42.38 63.15 L42.38 63.15 L42.38 63.17" class="st3"/>
				<path d="M46.06 68.68 L46.06 68.68 A3.68504 3.68504 -180 0 0 49.75 64.99 L49.75 64.99 L49.75 61.31 A3.68505 3.68505
							 -180 0 0 46.06 57.62 L46.06 57.62 L42.38 57.62 L42.38 57.62 A3.68504 3.68504 -180 0 0 38.69 61.31 L38.69
							 76.05 L42.38 76.05 L42.38 68.68 L46.06 68.68 L46.06 68.68" class="st3"/>
			</g>
			<g id="shape8-15" v:mID="8" v:groupContext="shape" transform="translate(1.41732,-1.41732)">
				<title>Sheet.8</title>
				<path d="M15.77 76.05 L38.08 76.05 L53.86 60.27 L53.86 37.97 L38.08 22.19 L15.77 22.19 L0 37.97 L0 60.27 L15.77 76.05
							 Z" class="st4"/>
			</g>
			<g id="shape9-17" v:mID="9" v:groupContext="shape" transform="translate(-7.08662,18.9961)">
				<title>Sheet.9</title>
				<rect x="0" y="57.1513" width="70.8661" height="18.8976" class="st5"/>
			</g>
		</g>
	</g>
</svg>
