<?xml version="1.0" encoding="UTF-8" standalone="no"?>
<!DOCTYPE svg PUBLIC "-//W3C//DTD SVG 1.1//EN" "http://www.w3.org/Graphics/SVG/1.1/DTD/svg11.dtd">
<!-- Generated by Microsoft Visio, SVG Export Wissenskategorie.svg Page-1 -->
<svg xmlns="http://www.w3.org/2000/svg" xmlns:xlink="http://www.w3.org/1999/xlink" xmlns:ev="http://www.w3.org/2001/xml-events"
		xmlns:v="http://schemas.microsoft.com/visio/2003/SVGExtensions/" width="0.987585in" height="0.70637in"
		viewBox="0 0 71.1061 50.8587" xml:space="preserve" color-interpolation-filters="sRGB" class="st2">
	<v:documentProperties v:langID="1031" v:metric="true" v:viewMarkup="false">
		<v:userDefs>
			<v:ud v:nameU="msvConvertTheme"/>
		</v:userDefs>
	</v:documentProperties>

	<style type="text/css">
	<![CDATA[
		.st1 {fill:#ffffff;stroke:#000000;stroke-linecap:round;stroke-linejoin:round;stroke-width:0.24}
		.st2 {fill:none;fill-rule:evenodd;font-size:12px;overflow:visible;stroke-linecap:square;stroke-miterlimit:3}
	]]>
	</style>

	<g v:mID="0" v:index="1" v:groupContext="foregroundPage">
		<title>Page-1</title>
		<v:pageProperties v:drawingScale="0.0393701" v:pageScale="0.0393701" v:drawingUnits="24" v:shadowOffsetX="8.50394"
				v:shadowOffsetY="-8.50394"/>
		<v:layer v:name="Wolke" v:index="0"/>
		<g id="shape5-1" v:mID="5" v:groupContext="shape" v:layerMember="0" transform="translate(0.12,-0.12)">
			<title>Wolke</title>
			<v:userDefs>
				<v:ud v:nameU="visVersion" v:val="VT0(10):26"/>
			</v:userDefs>
			<path d="M1.54 25.6 A2.93622 3.12632 0 0 1 2.54 19.86 A3.9908 4.24916 0 0 1 6.32 13.41 A4.58245 4.87912 0 0 1 12.8 7.89
						 A3.12732 3.32979 0 0 1 18.44 5.03 A3.43409 3.65642 0 0 1 24.48 3.12 A6.78491 7.22417 0 0 1 33.91 1.92 A2.02708
						 2.15831 0 0 1 37.87 1.99 A2.25921 2.00061 38.87 0 1 42.07 1.91 A2.06024 1.45101 9.83 0 1 45.69 3.12 A3.84773
						 2.70144 13.74 0 1 53.06 5.04 A2.37202 1.59439 138.75 0 1 55.68 6.9 A3.89551 4.14771 0 0 1 61.92 11.39 A4.31466
						 3.03379 12.33 0 1 64.44 15.24 A5.50735 3.88889 176.96 0 1 68.17 21.65 A3.183 2.24823 0 0 1 68.63 25.6 A1.58864
						 1.69149 0 1 1 68.38 28.54 A3.41816 3.63946 0 0 1 66.14 34.58 A2.25549 1.90421 177.55 1 1 63.85 37.8 A4.58245
						 4.87912 0 0 1 57.37 43.31 A3.58311 2.53084 0 0 1 51.73 46.18 A2.84872 3.03315 0 0 1 46.27 47.82 A2.97423
						 2.41639 7.87 0 1 40.6 48.98 A2.80935 1.98431 0 0 1 35.08 49.3 A3.59326 2.538 0 0 1 28.24 48.8 A3.28286 2.30468
						 14.33 0 1 22.5 46.34 A2.84468 1.72235 11.15 1 1 17.45 44.54 A3.36013 3.57767 0 0 1 12.72 40.41 A4.58617
						 4.88309 0 0 1 7.13 40.41 A8.06406 5.68234 8.91 0 1 4.03 34.58 A3.17243 3.37782 0 0 1 1.13 28.74 A3.12838
						 2.19598 14.02 0 1 1.54 25.6 Z" class="st1"/>
		</g>
	</g>
</svg>
